<svg width="8" height="320" viewBox="0 0 8 320" fill="none" xmlns="http://www.w3.org/2000/svg">
<path d="M4.59721 1.02389C4.40194 0.828626 4.08536 0.828626 3.8901 1.02389L0.708119 4.20587C0.512856 4.40113 0.512856 4.71771 0.708119 4.91298C0.903381 5.10824 1.21996 5.10824 1.41523 4.91298L4.24365 2.08455L7.07208 4.91298C7.26734 5.10824 7.58392 5.10824 7.77919 4.91298C7.97445 4.71771 7.97445 4.40113 7.77919 4.20587L4.59721 1.02389ZM3.74365 1.37744L3.74365 2.98638L4.74365 2.98638L4.74365 1.37744L3.74365 1.37744ZM3.74365 9.42211L3.74365 12.64L4.74365 12.64L4.74365 9.42211L3.74365 9.42211ZM3.74365 19.0757L3.74365 22.2936L4.74365 22.2936L4.74365 19.0757L3.74365 19.0757ZM3.74365 28.7293L3.74365 31.9472L4.74365 31.9472L4.74365 28.7293L3.74365 28.7293ZM3.74365 38.3829L3.74365 41.6008L4.74365 41.6008L4.74365 38.3829L3.74365 38.3829ZM3.74365 48.0365L3.74365 51.2544L4.74365 51.2544L4.74365 48.0365L3.74365 48.0365ZM3.74366 57.6901L3.74366 60.908L4.74366 60.908L4.74366 57.6901L3.74366 57.6901ZM3.74366 67.3438L3.74366 70.5616L4.74366 70.5616L4.74366 67.3437L3.74366 67.3438ZM3.74366 76.9974L3.74366 80.2152L4.74366 80.2152L4.74366 76.9974L3.74366 76.9974ZM3.74366 86.651L3.74366 89.8688L4.74366 89.8688L4.74366 86.651L3.74366 86.651ZM3.74366 96.3046L3.74366 99.5224L4.74366 99.5224L4.74366 96.3046L3.74366 96.3046ZM3.74366 105.958L3.74366 109.176L4.74366 109.176L4.74366 105.958L3.74366 105.958ZM3.74366 115.612L3.74366 118.83L4.74366 118.83L4.74366 115.612L3.74366 115.612ZM3.74366 125.265L3.74366 128.483L4.74366 128.483L4.74366 125.265L3.74366 125.265ZM3.74366 134.919L3.74366 138.137L4.74366 138.137L4.74366 134.919L3.74366 134.919ZM3.74366 144.573L3.74366 147.79L4.74366 147.79L4.74366 144.573L3.74366 144.573ZM3.74366 154.226L3.74366 157.444L4.74366 157.444L4.74366 154.226L3.74366 154.226ZM3.74366 163.88L3.74366 167.098L4.74366 167.098L4.74366 163.88L3.74366 163.88ZM3.74366 173.533L3.74366 176.751L4.74366 176.751L4.74366 173.533L3.74366 173.533ZM3.74366 183.187L3.74366 186.405L4.74366 186.405L4.74366 183.187L3.74366 183.187ZM3.74366 192.841L3.74366 196.058L4.74366 196.058L4.74366 192.841L3.74366 192.841ZM3.74366 202.494L3.74366 205.712L4.74366 205.712L4.74366 202.494L3.74366 202.494ZM3.74366 212.148L3.74366 215.366L4.74366 215.366L4.74366 212.148L3.74366 212.148ZM3.74366 221.801L3.74366 225.019L4.74366 225.019L4.74366 221.801L3.74366 221.801ZM3.74366 231.455L3.74366 234.673L4.74366 234.673L4.74366 231.455L3.74366 231.455ZM3.74366 241.109L3.74366 244.326L4.74366 244.326L4.74366 241.109L3.74366 241.109ZM3.74367 250.762L3.74367 253.98L4.74367 253.98L4.74367 250.762L3.74367 250.762ZM3.74367 260.416L3.74367 263.634L4.74367 263.634L4.74367 260.416L3.74367 260.416ZM3.74367 270.069L3.74367 273.287L4.74367 273.287L4.74367 270.069L3.74367 270.069ZM3.74367 279.723L3.74367 282.941L4.74367 282.941L4.74367 279.723L3.74367 279.723ZM3.74367 289.377L3.74367 292.594L4.74367 292.594L4.74367 289.377L3.74367 289.377ZM3.74367 299.03L3.74367 302.248L4.74367 302.248L4.74367 299.03L3.74367 299.03ZM3.74367 308.684L3.74367 311.902L4.74367 311.902L4.74367 308.684L3.74367 308.684ZM3.74367 318.337L3.74367 319.946L4.74367 319.946L4.74367 318.337L3.74367 318.337Z" fill="white" fill-opacity="0.5"/>
</svg>
