<svg width="699" height="487" viewBox="0 0 699 487" fill="none" xmlns="http://www.w3.org/2000/svg">
<g filter="url(#filter0_d_2_1990)">
<rect x="60" y="44" width="579" height="367" rx="16" fill="url(#paint0_linear_2_1990)" shape-rendering="crispEdges"/>
<rect x="61" y="45" width="577" height="365" rx="15" stroke="url(#paint1_linear_2_1990)" stroke-width="2" shape-rendering="crispEdges"/>
</g>
<rect x="106.5" y="196.5" width="159" height="19" rx="5.06147" stroke="#CACBCF"/>
<line opacity="0.4" x1="114.514" y1="206.318" x2="141.626" y2="206.318" stroke="#87898F"/>
<rect x="106" y="306" width="160" height="20" rx="5.56147" fill="#EAEEFF"/>
<line x1="172" y1="316.318" x2="199.112" y2="316.318" stroke="#3B61F4"/>
<rect x="106.5" y="222.5" width="159" height="19" rx="5.06147" stroke="#CACBCF"/>
<line opacity="0.4" x1="114.514" y1="232.318" x2="141.626" y2="232.318" stroke="#87898F"/>
<rect x="106.5" y="248.5" width="159" height="19" rx="5.06147" stroke="#CACBCF"/>
<line opacity="0.4" x1="114.514" y1="258.318" x2="141.626" y2="258.318" stroke="#87898F"/>
<path d="M107.708 129H110.606L113.324 119.442L115.934 129H118.832L122.378 116.04H119.75L117.338 125.76L114.818 116.04H111.974L109.274 125.742L106.952 116.04H104.252L107.708 129ZM122.474 124.32C122.474 127.236 124.508 129.18 127.37 129.18C130.232 129.18 132.266 127.236 132.266 124.32C132.266 121.422 130.232 119.442 127.37 119.442C124.508 119.442 122.474 121.422 122.474 124.32ZM125.048 124.302C125.048 122.628 125.966 121.584 127.37 121.584C128.774 121.584 129.692 122.628 129.692 124.302C129.692 125.958 128.774 127.038 127.37 127.038C125.966 127.038 125.048 125.958 125.048 124.302ZM138.728 119.64C137.684 119.64 137.018 120.144 136.712 120.72L136.442 119.64H134.084V129H136.622V124.194C136.622 122.772 137.09 121.89 138.584 121.89H140.006V119.64H138.728ZM141.396 129H143.988V126.264L144.852 125.382L147.48 129H150.648L146.67 123.618L150.63 119.64H147.534L143.916 123.33V115.482H141.396V129ZM151.117 119.64V121.836H152.557V129H155.095V121.836H157.237V119.64H155.095V118.686C155.095 118.02 155.275 117.516 156.301 117.516H157.237V115.464H155.743C153.385 115.464 152.557 116.616 152.557 118.434V119.64H151.117ZM161.035 115.482H158.515V129H161.035V115.482ZM162.816 124.32C162.816 127.236 164.85 129.18 167.712 129.18C170.574 129.18 172.608 127.236 172.608 124.32C172.608 121.422 170.574 119.442 167.712 119.442C164.85 119.442 162.816 121.422 162.816 124.32ZM165.39 124.302C165.39 122.628 166.308 121.584 167.712 121.584C169.116 121.584 170.034 122.628 170.034 124.302C170.034 125.958 169.116 127.038 167.712 127.038C166.308 127.038 165.39 125.958 165.39 124.302ZM175.998 119.64H173.352L175.944 129H178.752L180.624 122.34L182.37 129H185.178L187.77 119.64H185.124L183.63 126.264L181.938 119.64H179.274L177.528 126.246L175.998 119.64ZM188.245 126.066C188.263 127.956 190.081 129.18 192.565 129.18C194.761 129.18 196.651 128.19 196.651 126.174C196.651 124.806 195.877 123.888 194.113 123.528L192.349 123.168C191.431 123.006 190.981 122.772 190.981 122.232C190.981 121.656 191.503 121.26 192.421 121.26C193.357 121.26 194.041 121.71 194.059 122.502H196.525C196.525 120.63 194.797 119.46 192.421 119.46C190.243 119.46 188.479 120.594 188.479 122.34C188.479 123.6 189.073 124.644 190.945 124.986L192.745 125.328C193.753 125.508 194.077 125.832 194.077 126.408C194.077 127.038 193.519 127.38 192.529 127.38C191.521 127.38 190.729 126.912 190.711 126.066H188.245Z" fill="#090C17"/>
<line opacity="0.4" x1="106" y1="143.5" x2="228" y2="143.5" stroke="#87898F" stroke-width="3"/>
<line opacity="0.4" x1="106" y1="151.5" x2="206" y2="151.5" stroke="#87898F" stroke-width="3"/>
<g filter="url(#filter1_d_2_1990)">
<rect x="435" y="294" width="158" height="69" rx="8" fill="url(#paint2_linear_2_1990)" shape-rendering="crispEdges"/>
<rect x="436" y="295" width="156" height="67" rx="7" stroke="url(#paint3_linear_2_1990)" stroke-width="2" shape-rendering="crispEdges"/>
</g>
<rect x="445" y="338" width="58" height="16" rx="8" fill="#FFF9E8"/>
<path d="M454.089 350.107C453.528 350.107 453.045 349.993 452.641 349.766C452.238 349.536 451.928 349.212 451.71 348.793C451.492 348.371 451.384 347.873 451.384 347.298C451.384 346.737 451.492 346.244 451.71 345.82C451.928 345.397 452.235 345.066 452.63 344.83C453.028 344.593 453.494 344.474 454.029 344.474C454.389 344.474 454.724 344.532 455.034 344.648C455.347 344.762 455.619 344.934 455.851 345.163C456.085 345.393 456.268 345.682 456.398 346.03C456.528 346.375 456.593 346.78 456.593 347.244V347.66H451.987V346.722H455.169C455.169 346.504 455.122 346.312 455.027 346.143C454.932 345.975 454.801 345.844 454.633 345.749C454.467 345.652 454.274 345.604 454.054 345.604C453.824 345.604 453.621 345.657 453.443 345.763C453.268 345.868 453.131 346.009 453.031 346.186C452.932 346.361 452.881 346.557 452.879 346.772V347.663C452.879 347.933 452.928 348.166 453.028 348.363C453.129 348.559 453.273 348.711 453.457 348.817C453.642 348.924 453.861 348.977 454.114 348.977C454.282 348.977 454.436 348.954 454.576 348.906C454.716 348.859 454.835 348.788 454.935 348.693C455.034 348.598 455.11 348.482 455.162 348.345L456.561 348.438C456.49 348.774 456.344 349.067 456.124 349.318C455.906 349.567 455.625 349.761 455.279 349.901C454.936 350.038 454.539 350.107 454.089 350.107ZM458.747 344.545L459.748 346.452L460.775 344.545H462.326L460.746 347.273L462.369 350H460.824L459.748 348.114L458.69 350H457.127L458.747 347.273L457.184 344.545H458.747ZM465.515 350.107C464.954 350.107 464.471 349.993 464.066 349.766C463.664 349.536 463.354 349.212 463.136 348.793C462.918 348.371 462.809 347.873 462.809 347.298C462.809 346.737 462.918 346.244 463.136 345.82C463.354 345.397 463.66 345.066 464.056 344.83C464.453 344.593 464.92 344.474 465.455 344.474C465.815 344.474 466.15 344.532 466.46 344.648C466.772 344.762 467.045 344.934 467.277 345.163C467.511 345.393 467.693 345.682 467.824 346.03C467.954 346.375 468.019 346.78 468.019 347.244V347.66H463.413V346.722H466.595C466.595 346.504 466.547 346.312 466.453 346.143C466.358 345.975 466.227 345.844 466.059 345.749C465.893 345.652 465.7 345.604 465.48 345.604C465.25 345.604 465.047 345.657 464.869 345.763C464.694 345.868 464.556 346.009 464.457 346.186C464.358 346.361 464.307 346.557 464.304 346.772V347.663C464.304 347.933 464.354 348.166 464.453 348.363C464.555 348.559 464.699 348.711 464.883 348.817C465.068 348.924 465.287 348.977 465.54 348.977C465.708 348.977 465.862 348.954 466.002 348.906C466.141 348.859 466.261 348.788 466.36 348.693C466.46 348.598 466.536 348.482 466.588 348.345L467.987 348.438C467.916 348.774 467.77 349.067 467.55 349.318C467.332 349.567 467.051 349.761 466.705 349.901C466.362 350.038 465.965 350.107 465.515 350.107ZM471.471 350.107C470.912 350.107 470.431 349.988 470.029 349.751C469.629 349.512 469.321 349.181 469.105 348.757C468.892 348.333 468.786 347.846 468.786 347.294C468.786 346.735 468.894 346.245 469.109 345.824C469.327 345.4 469.636 345.07 470.036 344.833C470.436 344.594 470.912 344.474 471.463 344.474C471.939 344.474 472.356 344.561 472.713 344.734C473.071 344.906 473.354 345.149 473.562 345.462C473.77 345.774 473.885 346.141 473.907 346.562H472.479C472.439 346.29 472.332 346.071 472.159 345.906C471.989 345.737 471.765 345.653 471.488 345.653C471.254 345.653 471.049 345.717 470.874 345.845C470.701 345.971 470.566 346.154 470.469 346.396C470.372 346.637 470.324 346.929 470.324 347.273C470.324 347.621 470.371 347.917 470.466 348.161C470.563 348.404 470.699 348.59 470.874 348.718C471.049 348.846 471.254 348.91 471.488 348.91C471.661 348.91 471.816 348.874 471.953 348.803C472.093 348.732 472.208 348.629 472.298 348.494C472.39 348.357 472.451 348.192 472.479 348.001H473.907C473.883 348.417 473.769 348.784 473.566 349.102C473.364 349.416 473.086 349.663 472.731 349.84C472.376 350.018 471.956 350.107 471.471 350.107ZM478.373 347.678V344.545H479.886V350H478.433V349.009H478.377C478.253 349.329 478.049 349.586 477.762 349.78C477.478 349.974 477.131 350.071 476.722 350.071C476.357 350.071 476.036 349.988 475.759 349.822C475.482 349.657 475.266 349.421 475.11 349.116C474.956 348.81 474.878 348.445 474.875 348.018V344.545H476.388V347.749C476.39 348.071 476.477 348.325 476.647 348.512C476.818 348.699 477.046 348.793 477.333 348.793C477.515 348.793 477.685 348.751 477.844 348.668C478.003 348.583 478.13 348.458 478.227 348.292C478.327 348.126 478.375 347.921 478.373 347.678ZM483.997 344.545V345.682H480.712V344.545H483.997ZM481.458 343.239H482.971V348.324C482.971 348.464 482.992 348.572 483.035 348.651C483.077 348.726 483.137 348.78 483.212 348.81C483.29 348.841 483.38 348.857 483.482 348.857C483.553 348.857 483.624 348.851 483.695 348.839C483.766 348.825 483.821 348.814 483.859 348.807L484.097 349.933C484.021 349.956 483.914 349.983 483.777 350.014C483.64 350.047 483.473 350.067 483.276 350.075C482.912 350.089 482.592 350.04 482.317 349.929C482.045 349.818 481.833 349.645 481.682 349.411C481.53 349.176 481.456 348.88 481.458 348.523V343.239ZM487.41 350.107C486.849 350.107 486.366 349.993 485.961 349.766C485.558 349.536 485.248 349.212 485.031 348.793C484.813 348.371 484.704 347.873 484.704 347.298C484.704 346.737 484.813 346.244 485.031 345.82C485.248 345.397 485.555 345.066 485.95 344.83C486.348 344.593 486.814 344.474 487.349 344.474C487.709 344.474 488.044 344.532 488.354 344.648C488.667 344.762 488.939 344.934 489.171 345.163C489.406 345.393 489.588 345.682 489.718 346.03C489.848 346.375 489.913 346.78 489.913 347.244V347.66H485.308V346.722H488.489C488.489 346.504 488.442 346.312 488.347 346.143C488.253 345.975 488.121 345.844 487.953 345.749C487.787 345.652 487.594 345.604 487.374 345.604C487.145 345.604 486.941 345.657 486.763 345.763C486.588 345.868 486.451 346.009 486.352 346.186C486.252 346.361 486.201 346.557 486.199 346.772V347.663C486.199 347.933 486.249 348.166 486.348 348.363C486.45 348.559 486.593 348.711 486.778 348.817C486.962 348.924 487.181 348.977 487.435 348.977C487.603 348.977 487.757 348.954 487.896 348.906C488.036 348.859 488.156 348.788 488.255 348.693C488.354 348.598 488.43 348.482 488.482 348.345L489.881 348.438C489.81 348.774 489.665 349.067 489.445 349.318C489.227 349.567 488.945 349.761 488.599 349.901C488.256 350.038 487.86 350.107 487.41 350.107ZM492.911 350.089C492.496 350.089 492.121 349.982 491.785 349.769C491.451 349.554 491.186 349.238 490.989 348.821C490.795 348.402 490.698 347.888 490.698 347.28C490.698 346.655 490.799 346.135 491 345.721C491.201 345.304 491.469 344.993 491.803 344.787C492.139 344.579 492.507 344.474 492.907 344.474C493.212 344.474 493.467 344.527 493.67 344.631C493.876 344.732 494.042 344.86 494.168 345.014C494.295 345.166 494.393 345.315 494.459 345.462H494.505V342.727H496.014V350H494.523V349.126H494.459C494.388 349.278 494.287 349.428 494.157 349.577C494.029 349.724 493.862 349.846 493.656 349.943C493.453 350.04 493.204 350.089 492.911 350.089ZM493.39 348.885C493.634 348.885 493.84 348.819 494.008 348.686C494.178 348.551 494.308 348.363 494.398 348.121C494.491 347.88 494.537 347.597 494.537 347.273C494.537 346.948 494.492 346.667 494.402 346.428C494.312 346.188 494.182 346.004 494.011 345.874C493.841 345.743 493.634 345.678 493.39 345.678C493.141 345.678 492.932 345.746 492.761 345.881C492.591 346.016 492.462 346.203 492.374 346.442C492.287 346.681 492.243 346.958 492.243 347.273C492.243 347.59 492.287 347.871 492.374 348.114C492.464 348.356 492.593 348.545 492.761 348.683C492.932 348.817 493.141 348.885 493.39 348.885Z" fill="#FCBA01"/>
<line opacity="0.4" x1="524" y1="346" x2="566" y2="346" stroke="#CACBCF" stroke-width="2" stroke-linecap="round"/>
<path d="M455.188 321.625C460.607 321.625 465 317.232 465 311.812C465 306.393 460.607 302 455.188 302C449.768 302 445.375 306.393 445.375 311.812C445.375 317.232 449.768 321.625 455.188 321.625Z" fill="#FCBA01"/>
<path d="M460.489 311.521L458.989 310.021L457.489 311.521" stroke="white" stroke-linecap="round"/>
<path d="M449.5 312.521L451 314.021L452.5 312.521" stroke="white" stroke-linecap="round"/>
<path d="M451 314.021V310.021C451 308.916 451.895 308.021 453 308.021H456" stroke="white" stroke-linecap="round"/>
<path d="M458.989 310.021V314.021C458.989 315.121 458.089 316.021 456.989 316.021H454" stroke="white" stroke-linecap="round"/>
<path d="M473.632 315.812H475.17V313.455H476.462C478.135 313.455 479.108 312.457 479.108 311.004C479.108 309.559 478.153 308.54 476.501 308.54H473.632V315.812ZM475.17 312.222V309.797H476.207C477.094 309.797 477.524 310.28 477.524 311.004C477.524 311.725 477.094 312.222 476.214 312.222H475.17ZM481.487 315.915C482.293 315.915 482.815 315.564 483.082 315.056H483.124V315.812H484.559V312.134C484.559 310.834 483.458 310.287 482.244 310.287C480.937 310.287 480.077 310.912 479.868 311.906L481.267 312.02C481.37 311.658 481.693 311.391 482.237 311.391C482.751 311.391 483.046 311.651 483.046 312.098V312.119C483.046 312.471 482.673 312.517 481.725 312.609C480.646 312.709 479.676 313.071 479.676 314.289C479.676 315.369 480.447 315.915 481.487 315.915ZM481.92 314.871C481.455 314.871 481.121 314.655 481.121 314.239C481.121 313.813 481.473 313.604 482.006 313.529C482.336 313.483 482.876 313.405 483.057 313.284V313.863C483.057 314.435 482.585 314.871 481.92 314.871ZM486.471 317.858C487.597 317.858 488.194 317.283 488.502 316.402L490.623 310.365L489.021 310.358L487.881 314.364H487.824L486.695 310.358H485.104L487.061 315.969L486.972 316.2C486.773 316.711 486.393 316.736 485.86 316.572L485.52 317.702C485.736 317.794 486.088 317.858 486.471 317.858ZM491.397 315.812H492.909V312.538C492.909 311.935 493.293 311.533 493.797 311.533C494.294 311.533 494.628 311.874 494.628 312.411V315.812H496.095V312.482C496.095 311.917 496.418 311.533 496.968 311.533C497.451 311.533 497.814 311.835 497.814 312.442V315.812H499.323V312.144C499.323 310.962 498.62 310.287 497.604 310.287C496.805 310.287 496.184 310.695 495.96 311.32H495.903C495.729 310.688 495.172 310.287 494.422 310.287C493.687 310.287 493.13 310.678 492.902 311.32H492.838V310.358H491.397V315.812ZM503.004 315.919C504.353 315.919 505.262 315.262 505.475 314.25L504.076 314.158C503.923 314.573 503.533 314.79 503.028 314.79C502.272 314.79 501.793 314.289 501.793 313.476V313.472H505.507V313.057C505.507 311.203 504.385 310.287 502.943 310.287C501.338 310.287 500.298 311.427 500.298 313.11C500.298 314.839 501.324 315.919 503.004 315.919ZM501.793 312.535C501.825 311.913 502.297 311.416 502.968 311.416C503.625 311.416 504.08 311.885 504.083 312.535H501.793ZM508.007 312.659C508.011 311.956 508.43 311.544 509.04 311.544C509.648 311.544 510.013 311.942 510.01 312.609V315.812H511.523V312.339C511.523 311.068 510.777 310.287 509.641 310.287C508.831 310.287 508.245 310.685 508 311.32H507.936V310.358H506.494V315.812H508.007V312.659ZM515.616 310.358H514.59V309.051H513.077V310.358H512.331V311.494H513.077V314.335C513.07 315.404 513.798 315.933 514.895 315.887C515.286 315.873 515.563 315.795 515.716 315.745L515.478 314.619C515.403 314.634 515.243 314.669 515.101 314.669C514.8 314.669 514.59 314.555 514.59 314.136V311.494H515.616V310.358ZM525.628 312.176C525.628 309.797 524.151 308.44 522.222 308.44C520.283 308.44 518.817 309.797 518.817 312.176C518.817 314.545 520.283 315.912 522.222 315.912C524.151 315.912 525.628 314.555 525.628 312.176ZM524.069 312.176C524.069 313.717 523.337 314.552 522.222 314.552C521.104 314.552 520.376 313.717 520.376 312.176C520.376 310.635 521.104 309.8 522.222 309.8C523.337 309.8 524.069 310.635 524.069 312.176ZM526.738 315.812H528.251V312.727C528.251 312.055 528.741 311.594 529.409 311.594C529.618 311.594 529.906 311.629 530.048 311.675V310.333C529.913 310.301 529.725 310.28 529.572 310.28C528.961 310.28 528.461 310.635 528.262 311.31H528.205V310.358H526.738V315.812ZM532.586 315.901C533.467 315.901 533.925 315.393 534.135 314.939H534.199V315.812H535.69V308.54H534.181V311.274H534.135C533.932 310.83 533.495 310.287 532.583 310.287C531.386 310.287 530.374 311.217 530.374 313.092C530.374 314.918 531.343 315.901 532.586 315.901ZM533.066 314.697C532.324 314.697 531.919 314.037 531.919 313.085C531.919 312.141 532.316 311.491 533.066 311.491C533.801 311.491 534.213 312.112 534.213 313.085C534.213 314.058 533.794 314.697 533.066 314.697ZM539.42 315.919C540.769 315.919 541.678 315.262 541.891 314.25L540.492 314.158C540.339 314.573 539.949 314.79 539.444 314.79C538.688 314.79 538.209 314.289 538.209 313.476V313.472H541.923V313.057C541.923 311.203 540.801 310.287 539.359 310.287C537.754 310.287 536.714 311.427 536.714 313.11C536.714 314.839 537.74 315.919 539.42 315.919ZM538.209 312.535C538.241 311.913 538.713 311.416 539.384 311.416C540.041 311.416 540.496 311.885 540.499 312.535H538.209ZM542.91 315.812H544.423V312.727C544.423 312.055 544.913 311.594 545.581 311.594C545.79 311.594 546.078 311.629 546.22 311.675V310.333C546.085 310.301 545.897 310.28 545.744 310.28C545.133 310.28 544.633 310.635 544.434 311.31H544.377V310.358H542.91V315.812Z" fill="#090C17"/>
<rect x="434.5" y="293.5" width="159" height="70" rx="8.5" stroke="#E4E4E4"/>
<line x1="435" y1="328.5" x2="593" y2="328.5" stroke="#E4E4E4"/>
<g filter="url(#filter2_d_2_1990)">
<rect x="435" y="203" width="158" height="69" rx="8" fill="url(#paint4_linear_2_1990)" shape-rendering="crispEdges"/>
<rect x="436" y="204" width="156" height="67" rx="7" stroke="url(#paint5_linear_2_1990)" stroke-width="2" shape-rendering="crispEdges"/>
</g>
<rect x="445" y="247" width="37" height="16" rx="8" fill="#EAEEFF"/>
<path d="M457.642 255.101L456.257 255.186C456.233 255.068 456.183 254.961 456.104 254.866C456.026 254.769 455.923 254.692 455.795 254.636C455.67 254.576 455.52 254.547 455.344 254.547C455.11 254.547 454.912 254.597 454.751 254.696C454.59 254.793 454.51 254.923 454.51 255.087C454.51 255.217 454.562 255.327 454.666 255.417C454.77 255.507 454.949 255.579 455.202 255.634L456.19 255.832C456.72 255.941 457.115 256.116 457.376 256.358C457.636 256.599 457.766 256.917 457.766 257.31C457.766 257.667 457.661 257.981 457.45 258.251C457.242 258.521 456.955 258.731 456.591 258.883C456.229 259.032 455.811 259.107 455.337 259.107C454.615 259.107 454.04 258.956 453.612 258.656C453.185 258.353 452.936 257.941 452.862 257.42L454.35 257.342C454.395 257.562 454.504 257.73 454.677 257.846C454.85 257.96 455.071 258.016 455.341 258.016C455.606 258.016 455.819 257.965 455.98 257.864C456.143 257.759 456.226 257.626 456.229 257.462C456.226 257.325 456.168 257.213 456.055 257.125C455.941 257.035 455.766 256.966 455.529 256.919L454.585 256.731C454.052 256.624 453.655 256.44 453.395 256.177C453.137 255.914 453.008 255.579 453.008 255.172C453.008 254.821 453.103 254.52 453.292 254.266C453.484 254.013 453.752 253.818 454.098 253.68C454.446 253.543 454.853 253.474 455.32 253.474C456.009 253.474 456.551 253.62 456.946 253.911C457.344 254.202 457.576 254.599 457.642 255.101ZM461.205 259.107C460.644 259.107 460.161 258.993 459.756 258.766C459.353 258.536 459.043 258.212 458.825 257.793C458.608 257.371 458.499 256.873 458.499 256.298C458.499 255.737 458.608 255.244 458.825 254.82C459.043 254.397 459.35 254.066 459.745 253.83C460.143 253.593 460.609 253.474 461.144 253.474C461.504 253.474 461.839 253.532 462.149 253.648C462.462 253.762 462.734 253.934 462.966 254.163C463.2 254.393 463.383 254.682 463.513 255.03C463.643 255.375 463.708 255.78 463.708 256.244V256.66H459.102V255.722H462.284C462.284 255.504 462.237 255.312 462.142 255.143C462.048 254.975 461.916 254.844 461.748 254.749C461.582 254.652 461.389 254.604 461.169 254.604C460.94 254.604 460.736 254.657 460.558 254.763C460.383 254.868 460.246 255.009 460.146 255.186C460.047 255.361 459.996 255.557 459.994 255.772V256.663C459.994 256.933 460.044 257.166 460.143 257.363C460.245 257.559 460.388 257.711 460.573 257.817C460.757 257.924 460.976 257.977 461.23 257.977C461.398 257.977 461.552 257.954 461.691 257.906C461.831 257.859 461.95 257.788 462.05 257.693C462.149 257.598 462.225 257.482 462.277 257.345L463.676 257.438C463.605 257.774 463.46 258.067 463.24 258.318C463.022 258.567 462.74 258.761 462.394 258.901C462.051 259.038 461.655 259.107 461.205 259.107ZM466.208 255.847V259H464.695V253.545H466.137V254.508H466.201C466.322 254.191 466.524 253.94 466.808 253.755C467.093 253.568 467.437 253.474 467.842 253.474C468.221 253.474 468.551 253.557 468.833 253.723C469.114 253.889 469.333 254.125 469.49 254.433C469.646 254.739 469.724 255.103 469.724 255.527V259H468.211V255.797C468.213 255.463 468.128 255.203 467.955 255.016C467.783 254.826 467.545 254.732 467.242 254.732C467.038 254.732 466.858 254.775 466.702 254.863C466.548 254.951 466.427 255.078 466.34 255.246C466.254 255.412 466.211 255.612 466.208 255.847ZM473.817 253.545V254.682H470.533V253.545H473.817ZM471.278 252.239H472.791V257.324C472.791 257.464 472.813 257.572 472.855 257.651C472.898 257.726 472.957 257.78 473.033 257.81C473.111 257.841 473.201 257.857 473.303 257.857C473.374 257.857 473.445 257.851 473.516 257.839C473.587 257.825 473.641 257.814 473.679 257.807L473.917 258.933C473.841 258.956 473.735 258.983 473.597 259.014C473.46 259.047 473.293 259.067 473.097 259.075C472.732 259.089 472.412 259.04 472.138 258.929C471.866 258.818 471.654 258.645 471.502 258.411C471.351 258.176 471.276 257.88 471.278 257.523V252.239Z" fill="#3B61F4"/>
<line opacity="0.4" x1="524" y1="255" x2="566" y2="255" stroke="#CACBCF" stroke-width="2" stroke-linecap="round"/>
<path d="M455.188 230.625C460.607 230.625 465 226.232 465 220.812C465 215.393 460.607 211 455.188 211C449.768 211 445.375 215.393 445.375 220.812C445.375 226.232 449.768 230.625 455.188 230.625Z" fill="#3B61F4"/>
<path d="M459 221H451" stroke="white" stroke-linecap="round"/>
<path d="M457 219L459 221L457 223" stroke="white" stroke-linecap="round"/>
<path d="M473.632 224.812H475.17V222.455H476.462C478.135 222.455 479.108 221.457 479.108 220.004C479.108 218.559 478.153 217.54 476.501 217.54H473.632V224.812ZM475.17 221.222V218.797H476.207C477.094 218.797 477.524 219.28 477.524 220.004C477.524 220.725 477.094 221.222 476.214 221.222H475.17ZM481.487 224.915C482.293 224.915 482.815 224.564 483.082 224.056H483.124V224.812H484.559V221.134C484.559 219.834 483.458 219.287 482.244 219.287C480.937 219.287 480.077 219.912 479.868 220.906L481.267 221.02C481.37 220.658 481.693 220.391 482.237 220.391C482.751 220.391 483.046 220.651 483.046 221.098V221.119C483.046 221.471 482.673 221.517 481.725 221.609C480.646 221.709 479.676 222.071 479.676 223.289C479.676 224.369 480.447 224.915 481.487 224.915ZM481.92 223.871C481.455 223.871 481.121 223.655 481.121 223.239C481.121 222.813 481.473 222.604 482.006 222.529C482.336 222.483 482.876 222.405 483.057 222.284V222.863C483.057 223.435 482.585 223.871 481.92 223.871ZM486.471 226.858C487.597 226.858 488.194 226.283 488.502 225.402L490.623 219.365L489.021 219.358L487.881 223.364H487.824L486.695 219.358H485.104L487.061 224.969L486.972 225.2C486.773 225.711 486.393 225.736 485.86 225.572L485.52 226.702C485.736 226.794 486.088 226.858 486.471 226.858ZM491.397 224.812H492.909V221.538C492.909 220.935 493.293 220.533 493.797 220.533C494.294 220.533 494.628 220.874 494.628 221.411V224.812H496.095V221.482C496.095 220.917 496.418 220.533 496.968 220.533C497.451 220.533 497.814 220.835 497.814 221.442V224.812H499.323V221.144C499.323 219.962 498.62 219.287 497.604 219.287C496.805 219.287 496.184 219.695 495.96 220.32H495.903C495.729 219.688 495.172 219.287 494.422 219.287C493.687 219.287 493.13 219.678 492.902 220.32H492.838V219.358H491.397V224.812ZM503.004 224.919C504.353 224.919 505.262 224.262 505.475 223.25L504.076 223.158C503.923 223.573 503.533 223.79 503.028 223.79C502.272 223.79 501.793 223.289 501.793 222.476V222.472H505.507V222.057C505.507 220.203 504.385 219.287 502.943 219.287C501.338 219.287 500.298 220.427 500.298 222.11C500.298 223.839 501.324 224.919 503.004 224.919ZM501.793 221.535C501.825 220.913 502.297 220.416 502.968 220.416C503.625 220.416 504.08 220.885 504.083 221.535H501.793ZM508.007 221.659C508.011 220.956 508.43 220.544 509.04 220.544C509.648 220.544 510.013 220.942 510.01 221.609V224.812H511.523V221.339C511.523 220.068 510.777 219.287 509.641 219.287C508.831 219.287 508.245 219.685 508 220.32H507.936V219.358H506.494V224.812H508.007V221.659ZM515.616 219.358H514.59V218.051H513.077V219.358H512.331V220.494H513.077V223.335C513.07 224.404 513.798 224.933 514.895 224.887C515.286 224.873 515.563 224.795 515.716 224.745L515.478 223.619C515.403 223.634 515.243 223.669 515.101 223.669C514.8 223.669 514.59 223.555 514.59 223.136V220.494H515.616V219.358ZM525.628 221.176C525.628 218.797 524.151 217.44 522.222 217.44C520.283 217.44 518.817 218.797 518.817 221.176C518.817 223.545 520.283 224.912 522.222 224.912C524.151 224.912 525.628 223.555 525.628 221.176ZM524.069 221.176C524.069 222.717 523.337 223.552 522.222 223.552C521.104 223.552 520.376 222.717 520.376 221.176C520.376 219.635 521.104 218.8 522.222 218.8C523.337 218.8 524.069 219.635 524.069 221.176ZM526.738 224.812H528.251V221.727C528.251 221.055 528.741 220.594 529.409 220.594C529.618 220.594 529.906 220.629 530.048 220.675V219.333C529.913 219.301 529.725 219.28 529.572 219.28C528.961 219.28 528.461 219.635 528.262 220.31H528.205V219.358H526.738V224.812ZM532.586 224.901C533.467 224.901 533.925 224.393 534.135 223.939H534.199V224.812H535.69V217.54H534.181V220.274H534.135C533.932 219.83 533.495 219.287 532.583 219.287C531.386 219.287 530.374 220.217 530.374 222.092C530.374 223.918 531.343 224.901 532.586 224.901ZM533.066 223.697C532.324 223.697 531.919 223.037 531.919 222.085C531.919 221.141 532.316 220.491 533.066 220.491C533.801 220.491 534.213 221.112 534.213 222.085C534.213 223.058 533.794 223.697 533.066 223.697ZM539.42 224.919C540.769 224.919 541.678 224.262 541.891 223.25L540.492 223.158C540.339 223.573 539.949 223.79 539.444 223.79C538.688 223.79 538.209 223.289 538.209 222.476V222.472H541.923V222.057C541.923 220.203 540.801 219.287 539.359 219.287C537.754 219.287 536.714 220.427 536.714 222.11C536.714 223.839 537.74 224.919 539.42 224.919ZM538.209 221.535C538.241 220.913 538.713 220.416 539.384 220.416C540.041 220.416 540.496 220.885 540.499 221.535H538.209ZM542.91 224.812H544.423V221.727C544.423 221.055 544.913 220.594 545.581 220.594C545.79 220.594 546.078 220.629 546.22 220.675V219.333C546.085 219.301 545.897 219.28 545.744 219.28C545.133 219.28 544.633 219.635 544.434 220.31H544.377V219.358H542.91V224.812Z" fill="#090C17"/>
<rect x="434.5" y="202.5" width="159" height="70" rx="8.5" stroke="#E4E4E4"/>
<line x1="435" y1="237.5" x2="593" y2="237.5" stroke="#E4E4E4"/>
<g filter="url(#filter3_d_2_1990)">
<rect x="435" y="112" width="158" height="69" rx="8" fill="url(#paint6_linear_2_1990)" shape-rendering="crispEdges"/>
<rect x="436" y="113" width="156" height="67" rx="7" stroke="url(#paint7_linear_2_1990)" stroke-width="2" shape-rendering="crispEdges"/>
</g>
<rect x="445" y="156" width="58" height="16" rx="8" fill="#E4FFE0"/>
<path d="M458.068 168.107C457.509 168.107 457.029 167.988 456.626 167.751C456.226 167.512 455.919 167.181 455.703 166.757C455.49 166.333 455.384 165.846 455.384 165.294C455.384 164.735 455.491 164.245 455.707 163.824C455.924 163.4 456.233 163.07 456.634 162.833C457.034 162.594 457.509 162.474 458.061 162.474C458.537 162.474 458.954 162.561 459.311 162.734C459.669 162.906 459.951 163.149 460.16 163.462C460.368 163.774 460.483 164.141 460.504 164.562H459.077C459.036 164.29 458.93 164.071 458.757 163.906C458.587 163.737 458.363 163.653 458.086 163.653C457.852 163.653 457.647 163.717 457.472 163.845C457.299 163.971 457.164 164.154 457.067 164.396C456.97 164.637 456.921 164.929 456.921 165.273C456.921 165.621 456.969 165.917 457.063 166.161C457.16 166.404 457.296 166.59 457.472 166.718C457.647 166.846 457.852 166.91 458.086 166.91C458.259 166.91 458.414 166.874 458.551 166.803C458.691 166.732 458.806 166.629 458.896 166.494C458.988 166.357 459.048 166.192 459.077 166.001H460.504C460.481 166.417 460.367 166.784 460.163 167.102C459.962 167.416 459.684 167.663 459.329 167.84C458.974 168.018 458.554 168.107 458.068 168.107ZM461.473 168V162.545H462.939V163.497H462.996C463.096 163.159 463.263 162.903 463.497 162.73C463.731 162.555 464.001 162.467 464.307 162.467C464.382 162.467 464.464 162.472 464.552 162.482C464.639 162.491 464.716 162.504 464.782 162.521V163.863C464.711 163.842 464.613 163.823 464.488 163.806C464.362 163.79 464.247 163.781 464.143 163.781C463.921 163.781 463.722 163.83 463.547 163.927C463.374 164.022 463.237 164.154 463.135 164.325C463.035 164.495 462.986 164.692 462.986 164.914V168H461.473ZM467.797 168.107C467.235 168.107 466.752 167.993 466.348 167.766C465.945 167.536 465.635 167.212 465.417 166.793C465.199 166.371 465.091 165.873 465.091 165.298C465.091 164.737 465.199 164.244 465.417 163.82C465.635 163.397 465.942 163.066 466.337 162.83C466.735 162.593 467.201 162.474 467.736 162.474C468.096 162.474 468.431 162.532 468.741 162.648C469.054 162.762 469.326 162.934 469.558 163.163C469.792 163.393 469.975 163.682 470.105 164.03C470.235 164.375 470.3 164.78 470.3 165.244V165.66H465.694V164.722H468.876C468.876 164.504 468.829 164.312 468.734 164.143C468.639 163.975 468.508 163.844 468.34 163.749C468.174 163.652 467.981 163.604 467.761 163.604C467.531 163.604 467.328 163.657 467.15 163.763C466.975 163.868 466.838 164.009 466.738 164.186C466.639 164.361 466.588 164.557 466.586 164.772V165.663C466.586 165.933 466.635 166.166 466.735 166.363C466.837 166.559 466.98 166.711 467.164 166.817C467.349 166.924 467.568 166.977 467.821 166.977C467.989 166.977 468.143 166.954 468.283 166.906C468.423 166.859 468.542 166.788 468.642 166.693C468.741 166.598 468.817 166.482 468.869 166.345L470.268 166.438C470.197 166.774 470.051 167.067 469.831 167.318C469.614 167.567 469.332 167.761 468.986 167.901C468.643 168.038 468.246 168.107 467.797 168.107ZM472.843 168.103C472.495 168.103 472.185 168.043 471.912 167.922C471.64 167.799 471.425 167.618 471.266 167.379C471.11 167.137 471.032 166.836 471.032 166.477C471.032 166.174 471.087 165.919 471.199 165.713C471.31 165.507 471.461 165.341 471.653 165.216C471.845 165.09 472.063 164.996 472.306 164.932C472.553 164.868 472.811 164.823 473.081 164.797C473.398 164.764 473.654 164.733 473.848 164.705C474.042 164.674 474.183 164.629 474.27 164.57C474.358 164.51 474.402 164.423 474.402 164.307V164.286C474.402 164.061 474.331 163.887 474.189 163.763C474.049 163.64 473.85 163.579 473.592 163.579C473.32 163.579 473.103 163.639 472.942 163.76C472.781 163.878 472.675 164.027 472.623 164.207L471.223 164.094C471.294 163.762 471.434 163.476 471.642 163.234C471.851 162.991 472.119 162.804 472.449 162.673C472.78 162.541 473.163 162.474 473.599 162.474C473.902 162.474 474.192 162.51 474.469 162.581C474.748 162.652 474.996 162.762 475.211 162.911C475.429 163.06 475.601 163.252 475.726 163.487C475.852 163.719 475.914 163.997 475.914 164.321V168H474.48V167.244H474.437C474.35 167.414 474.232 167.564 474.086 167.695C473.939 167.822 473.762 167.923 473.556 167.996C473.35 168.067 473.113 168.103 472.843 168.103ZM473.276 167.059C473.498 167.059 473.695 167.015 473.865 166.928C474.036 166.838 474.17 166.717 474.267 166.565C474.364 166.414 474.412 166.242 474.412 166.05V165.472C474.365 165.502 474.3 165.531 474.217 165.557C474.136 165.58 474.045 165.603 473.944 165.624C473.842 165.643 473.74 165.661 473.638 165.678C473.536 165.692 473.444 165.705 473.361 165.717C473.184 165.743 473.029 165.784 472.896 165.841C472.763 165.898 472.66 165.975 472.587 166.072C472.514 166.166 472.477 166.285 472.477 166.427C472.477 166.633 472.551 166.79 472.701 166.899C472.852 167.006 473.044 167.059 473.276 167.059ZM479.989 162.545V163.682H476.705V162.545H479.989ZM477.45 161.239H478.963V166.324C478.963 166.464 478.984 166.572 479.027 166.651C479.07 166.726 479.129 166.78 479.205 166.81C479.283 166.841 479.373 166.857 479.474 166.857C479.545 166.857 479.616 166.851 479.688 166.839C479.759 166.825 479.813 166.814 479.851 166.807L480.089 167.933C480.013 167.956 479.906 167.983 479.769 168.014C479.632 168.047 479.465 168.067 479.268 168.075C478.904 168.089 478.584 168.04 478.31 167.929C478.037 167.818 477.826 167.645 477.674 167.411C477.522 167.176 477.448 166.88 477.45 166.523V161.239ZM483.402 168.107C482.841 168.107 482.358 167.993 481.953 167.766C481.551 167.536 481.241 167.212 481.023 166.793C480.805 166.371 480.696 165.873 480.696 165.298C480.696 164.737 480.805 164.244 481.023 163.82C481.241 163.397 481.547 163.066 481.942 162.83C482.34 162.593 482.807 162.474 483.342 162.474C483.701 162.474 484.036 162.532 484.347 162.648C484.659 162.762 484.931 162.934 485.163 163.163C485.398 163.393 485.58 163.682 485.71 164.03C485.84 164.375 485.906 164.78 485.906 165.244V165.66H481.3V164.722H484.482C484.482 164.504 484.434 164.312 484.339 164.143C484.245 163.975 484.113 163.844 483.945 163.749C483.78 163.652 483.587 163.604 483.366 163.604C483.137 163.604 482.933 163.657 482.756 163.763C482.58 163.868 482.443 164.009 482.344 164.186C482.244 164.361 482.193 164.557 482.191 164.772V165.663C482.191 165.933 482.241 166.166 482.34 166.363C482.442 166.559 482.585 166.711 482.77 166.817C482.955 166.924 483.174 166.977 483.427 166.977C483.595 166.977 483.749 166.954 483.888 166.906C484.028 166.859 484.148 166.788 484.247 166.693C484.347 166.598 484.422 166.482 484.474 166.345L485.874 166.438C485.803 166.774 485.657 167.067 485.437 167.318C485.219 167.567 484.937 167.761 484.592 167.901C484.248 168.038 483.852 168.107 483.402 168.107ZM488.903 168.089C488.488 168.089 488.113 167.982 487.777 167.769C487.443 167.554 487.178 167.238 486.982 166.821C486.787 166.402 486.69 165.888 486.69 165.28C486.69 164.655 486.791 164.135 486.992 163.721C487.193 163.304 487.461 162.993 487.795 162.787C488.131 162.579 488.499 162.474 488.899 162.474C489.205 162.474 489.459 162.527 489.663 162.631C489.869 162.732 490.034 162.86 490.16 163.014C490.288 163.166 490.385 163.315 490.451 163.462H490.497V160.727H492.006V168H490.515V167.126H490.451C490.38 167.278 490.279 167.428 490.149 167.577C490.021 167.724 489.854 167.846 489.648 167.943C489.445 168.04 489.196 168.089 488.903 168.089ZM489.382 166.885C489.626 166.885 489.832 166.819 490 166.686C490.17 166.551 490.301 166.363 490.391 166.121C490.483 165.88 490.529 165.597 490.529 165.273C490.529 164.948 490.484 164.667 490.394 164.428C490.304 164.188 490.174 164.004 490.004 163.874C489.833 163.743 489.626 163.678 489.382 163.678C489.134 163.678 488.924 163.746 488.754 163.881C488.583 164.016 488.454 164.203 488.366 164.442C488.279 164.681 488.235 164.958 488.235 165.273C488.235 165.59 488.279 165.871 488.366 166.114C488.456 166.356 488.585 166.545 488.754 166.683C488.924 166.817 489.134 166.885 489.382 166.885Z" fill="#62C655"/>
<line opacity="0.4" x1="524" y1="164" x2="566" y2="164" stroke="#CACBCF" stroke-width="2" stroke-linecap="round"/>
<path d="M455.188 139.625C460.607 139.625 465 135.232 465 129.812C465 124.393 460.607 120 455.188 120C449.768 120 445.375 124.393 445.375 129.812C445.375 135.232 449.768 139.625 455.188 139.625Z" fill="#62C655"/>
<path d="M459.125 127.212L454.872 132.883C454.778 133.008 454.657 133.112 454.519 133.188C454.381 133.263 454.229 133.307 454.072 133.319C453.915 133.33 453.757 133.307 453.61 133.253C453.462 133.198 453.328 133.112 453.217 133.001L451.017 130.802" stroke="white" stroke-linecap="round"/>
<path d="M473.632 133.812H475.17V131.455H476.462C478.135 131.455 479.108 130.457 479.108 129.004C479.108 127.559 478.153 126.54 476.501 126.54H473.632V133.812ZM475.17 130.222V127.797H476.207C477.094 127.797 477.524 128.28 477.524 129.004C477.524 129.725 477.094 130.222 476.214 130.222H475.17ZM481.487 133.915C482.293 133.915 482.815 133.564 483.082 133.056H483.124V133.812H484.559V130.134C484.559 128.834 483.458 128.287 482.244 128.287C480.937 128.287 480.077 128.912 479.868 129.906L481.267 130.02C481.37 129.658 481.693 129.391 482.237 129.391C482.751 129.391 483.046 129.651 483.046 130.098V130.119C483.046 130.471 482.673 130.517 481.725 130.609C480.646 130.709 479.676 131.071 479.676 132.289C479.676 133.369 480.447 133.915 481.487 133.915ZM481.92 132.871C481.455 132.871 481.121 132.655 481.121 132.239C481.121 131.813 481.473 131.604 482.006 131.529C482.336 131.483 482.876 131.405 483.057 131.284V131.863C483.057 132.435 482.585 132.871 481.92 132.871ZM486.471 135.858C487.597 135.858 488.194 135.283 488.502 134.402L490.623 128.365L489.021 128.358L487.881 132.364H487.824L486.695 128.358H485.104L487.061 133.969L486.972 134.2C486.773 134.711 486.393 134.736 485.86 134.572L485.52 135.702C485.736 135.794 486.088 135.858 486.471 135.858ZM491.397 133.812H492.909V130.538C492.909 129.935 493.293 129.533 493.797 129.533C494.294 129.533 494.628 129.874 494.628 130.411V133.812H496.095V130.482C496.095 129.917 496.418 129.533 496.968 129.533C497.451 129.533 497.814 129.835 497.814 130.442V133.812H499.323V130.144C499.323 128.962 498.62 128.287 497.604 128.287C496.805 128.287 496.184 128.695 495.96 129.32H495.903C495.729 128.688 495.172 128.287 494.422 128.287C493.687 128.287 493.13 128.678 492.902 129.32H492.838V128.358H491.397V133.812ZM503.004 133.919C504.353 133.919 505.262 133.262 505.475 132.25L504.076 132.158C503.923 132.573 503.533 132.79 503.028 132.79C502.272 132.79 501.793 132.289 501.793 131.476V131.472H505.507V131.057C505.507 129.203 504.385 128.287 502.943 128.287C501.338 128.287 500.298 129.427 500.298 131.11C500.298 132.839 501.324 133.919 503.004 133.919ZM501.793 130.535C501.825 129.913 502.297 129.416 502.968 129.416C503.625 129.416 504.08 129.885 504.083 130.535H501.793ZM508.007 130.659C508.011 129.956 508.43 129.544 509.04 129.544C509.648 129.544 510.013 129.942 510.01 130.609V133.812H511.523V130.339C511.523 129.068 510.777 128.287 509.641 128.287C508.831 128.287 508.245 128.685 508 129.32H507.936V128.358H506.494V133.812H508.007V130.659ZM515.616 128.358H514.59V127.051H513.077V128.358H512.331V129.494H513.077V132.335C513.07 133.404 513.798 133.933 514.895 133.887C515.286 133.873 515.563 133.795 515.716 133.745L515.478 132.619C515.403 132.634 515.243 132.669 515.101 132.669C514.8 132.669 514.59 132.555 514.59 132.136V129.494H515.616V128.358ZM525.628 130.176C525.628 127.797 524.151 126.44 522.222 126.44C520.283 126.44 518.817 127.797 518.817 130.176C518.817 132.545 520.283 133.912 522.222 133.912C524.151 133.912 525.628 132.555 525.628 130.176ZM524.069 130.176C524.069 131.717 523.337 132.552 522.222 132.552C521.104 132.552 520.376 131.717 520.376 130.176C520.376 128.635 521.104 127.8 522.222 127.8C523.337 127.8 524.069 128.635 524.069 130.176ZM526.738 133.812H528.251V130.727C528.251 130.055 528.741 129.594 529.409 129.594C529.618 129.594 529.906 129.629 530.048 129.675V128.333C529.913 128.301 529.725 128.28 529.572 128.28C528.961 128.28 528.461 128.635 528.262 129.31H528.205V128.358H526.738V133.812ZM532.586 133.901C533.467 133.901 533.925 133.393 534.135 132.939H534.199V133.812H535.69V126.54H534.181V129.274H534.135C533.932 128.83 533.495 128.287 532.583 128.287C531.386 128.287 530.374 129.217 530.374 131.092C530.374 132.918 531.343 133.901 532.586 133.901ZM533.066 132.697C532.324 132.697 531.919 132.037 531.919 131.085C531.919 130.141 532.316 129.491 533.066 129.491C533.801 129.491 534.213 130.112 534.213 131.085C534.213 132.058 533.794 132.697 533.066 132.697ZM539.42 133.919C540.769 133.919 541.678 133.262 541.891 132.25L540.492 132.158C540.339 132.573 539.949 132.79 539.444 132.79C538.688 132.79 538.209 132.289 538.209 131.476V131.472H541.923V131.057C541.923 129.203 540.801 128.287 539.359 128.287C537.754 128.287 536.714 129.427 536.714 131.11C536.714 132.839 537.74 133.919 539.42 133.919ZM538.209 130.535C538.241 129.913 538.713 129.416 539.384 129.416C540.041 129.416 540.496 129.885 540.499 130.535H538.209ZM542.91 133.812H544.423V130.727C544.423 130.055 544.913 129.594 545.581 129.594C545.79 129.594 546.078 129.629 546.22 129.675V128.333C546.085 128.301 545.897 128.28 545.744 128.28C545.133 128.28 544.633 128.635 544.434 129.31H544.377V128.358H542.91V133.812Z" fill="#090C17"/>
<rect x="434.5" y="111.5" width="159" height="70" rx="8.5" stroke="#E4E4E4"/>
<line x1="435" y1="146.5" x2="593" y2="146.5" stroke="#E4E4E4"/>
<line x1="60" y1="66.5" x2="639" y2="66.5" stroke="black" stroke-opacity="0.1"/>
<circle cx="77.9727" cy="56.5328" r="3" fill="#EC6A5F"/>
<circle cx="86.9727" cy="56.5328" r="3" fill="#FCBA01"/>
<circle cx="95.9727" cy="56.5328" r="3" fill="#62C655"/>
<rect x="59.5" y="43.5" width="580" height="368" rx="16.5" stroke="#E4E4E4"/>
<defs>
<filter id="filter0_d_2_1990" x="0" y="0" width="699" height="487" filterUnits="userSpaceOnUse" color-interpolation-filters="sRGB">
<feFlood flood-opacity="0" result="BackgroundImageFix"/>
<feColorMatrix in="SourceAlpha" type="matrix" values="0 0 0 0 0 0 0 0 0 0 0 0 0 0 0 0 0 0 127 0" result="hardAlpha"/>
<feOffset dy="16"/>
<feGaussianBlur stdDeviation="30"/>
<feComposite in2="hardAlpha" operator="out"/>
<feColorMatrix type="matrix" values="0 0 0 0 0 0 0 0 0 0 0 0 0 0 0 0 0 0 0.12 0"/>
<feBlend mode="normal" in2="BackgroundImageFix" result="effect1_dropShadow_2_1990"/>
<feBlend mode="normal" in="SourceGraphic" in2="effect1_dropShadow_2_1990" result="shape"/>
</filter>
<filter id="filter1_d_2_1990" x="419" y="282" width="190" height="101" filterUnits="userSpaceOnUse" color-interpolation-filters="sRGB">
<feFlood flood-opacity="0" result="BackgroundImageFix"/>
<feColorMatrix in="SourceAlpha" type="matrix" values="0 0 0 0 0 0 0 0 0 0 0 0 0 0 0 0 0 0 127 0" result="hardAlpha"/>
<feOffset dy="4"/>
<feGaussianBlur stdDeviation="8"/>
<feComposite in2="hardAlpha" operator="out"/>
<feColorMatrix type="matrix" values="0 0 0 0 0 0 0 0 0 0 0 0 0 0 0 0 0 0 0.12 0"/>
<feBlend mode="normal" in2="BackgroundImageFix" result="effect1_dropShadow_2_1990"/>
<feBlend mode="normal" in="SourceGraphic" in2="effect1_dropShadow_2_1990" result="shape"/>
</filter>
<filter id="filter2_d_2_1990" x="419" y="191" width="190" height="101" filterUnits="userSpaceOnUse" color-interpolation-filters="sRGB">
<feFlood flood-opacity="0" result="BackgroundImageFix"/>
<feColorMatrix in="SourceAlpha" type="matrix" values="0 0 0 0 0 0 0 0 0 0 0 0 0 0 0 0 0 0 127 0" result="hardAlpha"/>
<feOffset dy="4"/>
<feGaussianBlur stdDeviation="8"/>
<feComposite in2="hardAlpha" operator="out"/>
<feColorMatrix type="matrix" values="0 0 0 0 0 0 0 0 0 0 0 0 0 0 0 0 0 0 0.12 0"/>
<feBlend mode="normal" in2="BackgroundImageFix" result="effect1_dropShadow_2_1990"/>
<feBlend mode="normal" in="SourceGraphic" in2="effect1_dropShadow_2_1990" result="shape"/>
</filter>
<filter id="filter3_d_2_1990" x="419" y="100" width="190" height="101" filterUnits="userSpaceOnUse" color-interpolation-filters="sRGB">
<feFlood flood-opacity="0" result="BackgroundImageFix"/>
<feColorMatrix in="SourceAlpha" type="matrix" values="0 0 0 0 0 0 0 0 0 0 0 0 0 0 0 0 0 0 127 0" result="hardAlpha"/>
<feOffset dy="4"/>
<feGaussianBlur stdDeviation="8"/>
<feComposite in2="hardAlpha" operator="out"/>
<feColorMatrix type="matrix" values="0 0 0 0 0 0 0 0 0 0 0 0 0 0 0 0 0 0 0.12 0"/>
<feBlend mode="normal" in2="BackgroundImageFix" result="effect1_dropShadow_2_1990"/>
<feBlend mode="normal" in="SourceGraphic" in2="effect1_dropShadow_2_1990" result="shape"/>
</filter>
<linearGradient id="paint0_linear_2_1990" x1="80.5" y1="57.4926" x2="651.69" y2="372.588" gradientUnits="userSpaceOnUse">
<stop stop-color="#FAFBFF"/>
<stop offset="1" stop-color="white" stop-opacity="0"/>
</linearGradient>
<linearGradient id="paint1_linear_2_1990" x1="104" y1="71.5252" x2="659.376" y2="108.996" gradientUnits="userSpaceOnUse">
<stop stop-color="white"/>
<stop offset="1" stop-color="white" stop-opacity="0"/>
</linearGradient>
<linearGradient id="paint2_linear_2_1990" x1="440.594" y1="296.537" x2="564.477" y2="395.727" gradientUnits="userSpaceOnUse">
<stop stop-color="#FAFBFF"/>
<stop offset="1" stop-color="white" stop-opacity="0"/>
</linearGradient>
<linearGradient id="paint3_linear_2_1990" x1="447.007" y1="299.175" x2="597.804" y2="313.942" gradientUnits="userSpaceOnUse">
<stop stop-color="white"/>
<stop offset="1" stop-color="white" stop-opacity="0"/>
</linearGradient>
<linearGradient id="paint4_linear_2_1990" x1="440.594" y1="205.537" x2="564.477" y2="304.727" gradientUnits="userSpaceOnUse">
<stop stop-color="#FAFBFF"/>
<stop offset="1" stop-color="white" stop-opacity="0"/>
</linearGradient>
<linearGradient id="paint5_linear_2_1990" x1="447.007" y1="208.175" x2="597.804" y2="222.942" gradientUnits="userSpaceOnUse">
<stop stop-color="white"/>
<stop offset="1" stop-color="white" stop-opacity="0"/>
</linearGradient>
<linearGradient id="paint6_linear_2_1990" x1="440.594" y1="114.537" x2="564.477" y2="213.727" gradientUnits="userSpaceOnUse">
<stop stop-color="#FAFBFF"/>
<stop offset="1" stop-color="white" stop-opacity="0"/>
</linearGradient>
<linearGradient id="paint7_linear_2_1990" x1="447.007" y1="117.175" x2="597.804" y2="131.942" gradientUnits="userSpaceOnUse">
<stop stop-color="white"/>
<stop offset="1" stop-color="white" stop-opacity="0"/>
</linearGradient>
</defs>
</svg>
