<svg width="202" height="51" viewBox="0 0 202 51" fill="none" xmlns="http://www.w3.org/2000/svg">
<path d="M39.8438 0H11.1562C4.99482 0 0 4.99482 0 11.1562V39.8438C0 46.0052 4.99482 51 11.1562 51H39.8438C46.0052 51 51 46.0052 51 39.8438V11.1562C51 4.99482 46.0052 0 39.8438 0Z" fill="white"/>
<path d="M39.8437 38.25H30.2812V22.3125H20.7187V38.25H11.1562V17.5312C11.1562 14.8906 13.2969 12.75 15.9375 12.75H35.0625C37.703 12.75 39.8437 14.8906 39.8437 17.5312V38.25Z" fill="#0F183B"/>
<path d="M75.4519 18.4111C76.8885 18.4111 78.1702 18.7094 79.2973 19.3061C80.4464 19.9028 81.3415 20.7868 81.9825 21.9581C82.6235 23.1295 82.9438 24.5438 82.9438 26.2013V36.9751H79.1979V26.7649C79.1979 25.1295 78.7889 23.8808 77.9713 23.0189C77.1537 22.135 76.0374 21.6929 74.6232 21.6929C73.2089 21.6929 72.0818 22.135 71.2419 23.0189C70.4243 23.8808 70.0153 25.1295 70.0153 26.7649V36.9751H66.2362V18.7094H70.0153V20.7979C70.634 20.0465 71.4188 19.4608 72.369 19.0409C73.3415 18.6211 74.3691 18.4111 75.4519 18.4111ZM103.643 18.7094V36.9751H99.864V34.8203C99.2673 35.5716 98.4829 36.1683 97.5104 36.6104C96.5602 37.0302 95.5434 37.2403 94.4606 37.2403C93.024 37.2403 91.7311 36.9419 90.582 36.3452C89.4549 35.7485 88.5599 34.8646 87.8969 33.6932C87.2559 32.5218 86.9355 31.1075 86.9355 29.45V18.7094H90.6815V28.8865C90.6815 30.5219 91.0904 31.7816 91.908 32.6656C92.7256 33.5275 93.8419 33.9584 95.2562 33.9584C96.6705 33.9584 97.7867 33.5275 98.6043 32.6656C99.4442 31.7816 99.864 30.5219 99.864 28.8865V18.7094H103.643ZM130.077 18.4111C131.514 18.4111 132.796 18.7094 133.923 19.3061C135.072 19.9028 135.967 20.7868 136.608 21.9581C137.271 23.1295 137.602 24.5438 137.602 26.2013V36.9751H133.856V26.7649C133.856 25.1295 133.448 23.8808 132.63 23.0189C131.812 22.135 130.696 21.6929 129.282 21.6929C127.867 21.6929 126.74 22.135 125.9 23.0189C125.083 23.8808 124.674 25.1295 124.674 26.7649V36.9751H120.928V26.7649C120.928 25.1295 120.519 23.8808 119.701 23.0189C118.884 22.135 117.768 21.6929 116.353 21.6929C114.939 21.6929 113.812 22.135 112.972 23.0189C112.154 23.8808 111.745 25.1295 111.745 26.7649V36.9751H107.966V18.7094H111.745V20.7979C112.364 20.0465 113.149 19.4608 114.099 19.0409C115.049 18.6211 116.066 18.4111 117.149 18.4111C118.607 18.4111 119.911 18.7205 121.061 19.3393C122.21 19.9581 123.094 20.8531 123.713 22.0244C124.265 20.9194 125.127 20.0465 126.298 19.4056C127.47 18.7426 128.729 18.4111 130.077 18.4111ZM158.489 27.3947C158.489 28.0798 158.445 28.6987 158.357 29.2511H144.4C144.511 30.7097 145.052 31.8811 146.025 32.765C146.997 33.6489 148.19 34.091 149.605 34.091C151.638 34.091 153.075 33.2403 153.914 31.5385H157.992C157.439 33.218 156.434 34.5994 154.975 35.6822C153.539 36.743 151.749 37.2734 149.605 37.2734C147.859 37.2734 146.29 36.8868 144.898 36.1132C143.527 35.3176 142.445 34.2125 141.649 32.7982C140.875 31.3617 140.489 29.7042 140.489 27.8257C140.489 25.9472 140.864 24.3007 141.616 22.8863C142.389 21.4498 143.461 20.3449 144.831 19.5713C146.224 18.7978 147.815 18.4111 149.605 18.4111C151.329 18.4111 152.864 18.7868 154.213 19.5382C155.561 20.2896 156.61 21.3504 157.362 22.7206C158.113 24.0687 158.489 25.6267 158.489 27.3947ZM154.544 26.2013C154.522 24.809 154.025 23.693 153.053 22.8532C152.08 22.0134 150.875 21.5935 149.439 21.5935C148.135 21.5935 147.019 22.0134 146.091 22.8532C145.163 23.6709 144.61 24.787 144.434 26.2013H154.544ZM165.324 21.3614C165.877 20.4332 166.606 19.715 167.512 19.2067C168.44 18.6763 169.534 18.4111 170.794 18.4111V22.3228H169.833C168.352 22.3228 167.225 22.6985 166.451 23.4499C165.7 24.2013 165.324 25.5052 165.324 27.3616V36.9751H161.545V18.7094H165.324V21.3614ZM172.345 27.7594C172.345 25.9251 172.721 24.3007 173.472 22.8863C174.246 21.472 175.284 20.378 176.588 19.6045C177.914 18.8089 179.373 18.4111 180.964 18.4111C182.4 18.4111 183.649 18.6984 184.71 19.273C185.793 19.8255 186.655 20.5216 187.296 21.3614V18.7094H191.108V36.9751H187.296V34.2568C186.655 35.1187 185.782 35.8368 184.677 36.4115C183.572 36.9862 182.312 37.2734 180.898 37.2734C179.329 37.2734 177.892 36.8756 176.588 36.08C175.284 35.2624 174.246 34.1353 173.472 32.6987C172.721 31.2401 172.345 29.5937 172.345 27.7594ZM187.296 27.8257C187.296 26.566 187.03 25.472 186.5 24.5438C185.992 23.6156 185.318 22.9084 184.478 22.4222C183.638 21.9361 182.732 21.6929 181.759 21.6929C180.787 21.6929 179.881 21.9361 179.041 22.4222C178.202 22.8863 177.516 23.5825 176.986 24.5107C176.478 25.4168 176.223 26.4997 176.223 27.7594C176.223 29.0191 176.478 30.1241 176.986 31.0744C177.516 32.0246 178.202 32.7539 179.041 33.2623C179.903 33.7484 180.809 33.9916 181.759 33.9916C182.732 33.9916 183.638 33.7484 184.478 33.2623C185.318 32.7762 185.992 32.0689 186.5 31.1407C187.03 30.1904 187.296 29.0854 187.296 27.8257ZM199.188 12.4441V36.9751H195.409V12.4441H199.188Z" fill="white"/>
</svg>
