<svg width="110" height="21" viewBox="0 0 110 21" fill="none" xmlns="http://www.w3.org/2000/svg">
<path d="M8.07807 5.14747C9.26 5.14747 10.3145 5.39293 11.2418 5.88385C12.1872 6.37477 12.9235 7.10205 13.4509 8.06572C13.9783 9.02938 14.2418 10.193 14.2418 11.5567V20.4205H11.16V12.0203C11.16 10.6749 10.8235 9.64757 10.1508 8.93847C9.47819 8.21119 8.55981 7.84753 7.39624 7.84753C6.23267 7.84753 5.30537 8.21119 4.61436 8.93847C3.94171 9.64757 3.60525 10.6749 3.60525 12.0203V20.4205H0.496094V5.39293H3.60525V7.11115C4.11427 6.49297 4.7599 6.01112 5.54165 5.66567C6.34176 5.32021 7.18723 5.14747 8.07807 5.14747ZM31.2717 5.39293V20.4205H28.1625V18.6478C27.6716 19.2659 27.0262 19.7568 26.2261 20.1205C25.4443 20.4659 24.6078 20.6387 23.7169 20.6387C22.535 20.6387 21.4714 20.3932 20.526 19.9023C19.5987 19.4114 18.8623 18.6842 18.3168 17.7205C17.7895 16.7567 17.5259 15.5931 17.5259 14.2295V5.39293H20.6078V13.7658C20.6078 15.1113 20.9443 16.1477 21.6169 16.875C22.2896 17.5841 23.2079 17.9387 24.3715 17.9387C25.5351 17.9387 26.4535 17.5841 27.1261 16.875C27.8171 16.1477 28.1625 15.1113 28.1625 13.7658V5.39293H31.2717ZM53.0198 5.14747C54.2017 5.14747 55.2562 5.39293 56.1835 5.88385C57.1288 6.37477 57.8652 7.10205 58.3926 8.06572C58.9381 9.02938 59.2108 10.193 59.2108 11.5567V20.4205H56.1289V12.0203C56.1289 10.6749 55.7924 9.64757 55.1198 8.93847C54.4471 8.21119 53.5288 7.84753 52.3652 7.84753C51.2016 7.84753 50.2743 8.21119 49.5833 8.93847C48.9107 9.64757 48.5742 10.6749 48.5742 12.0203V20.4205H45.4923V12.0203C45.4923 10.6749 45.1559 9.64757 44.4832 8.93847C43.8106 8.21119 42.8922 7.84753 41.7286 7.84753C40.565 7.84753 39.6377 8.21119 38.9467 8.93847C38.2741 9.64757 37.9376 10.6749 37.9376 12.0203V20.4205H34.8285V5.39293H37.9376V7.11115C38.4466 6.49297 39.0923 6.01112 39.874 5.66567C40.6558 5.32021 41.4923 5.14747 42.3832 5.14747C43.5832 5.14747 44.656 5.40203 45.6014 5.91113C46.5468 6.42022 47.2743 7.1566 47.7833 8.12027C48.2378 7.21115 48.9469 6.49297 49.9106 5.96567C50.8743 5.42021 51.9107 5.14747 53.0198 5.14747ZM76.3948 12.5385C76.3948 13.1022 76.3584 13.6113 76.2857 14.0658H64.8037C64.8944 15.2659 65.3399 16.2296 66.1401 16.9568C66.9399 17.684 67.9217 18.0477 69.0856 18.0477C70.7582 18.0477 71.9401 17.3478 72.6311 15.9477H75.9857C75.531 17.3295 74.7039 18.466 73.5038 19.3569C72.3219 20.2296 70.8492 20.666 69.0856 20.666C67.649 20.666 66.3582 20.3479 65.2128 19.7114C64.0854 19.0569 63.1945 18.1477 62.54 16.9841C61.9035 15.8022 61.5854 14.4386 61.5854 12.8931C61.5854 11.3476 61.8943 9.99302 62.5127 8.82937C63.1489 7.64752 64.0308 6.73843 65.1582 6.10204C66.3037 5.46566 67.6128 5.14747 69.0856 5.14747C70.5038 5.14747 71.7673 5.45658 72.8766 6.07477C73.9856 6.69295 74.8492 7.5657 75.4675 8.693C76.0856 9.80211 76.3948 11.084 76.3948 12.5385ZM73.1493 11.5567C73.1309 10.4112 72.7218 9.49303 71.922 8.8021C71.1219 8.11116 70.1309 7.76571 68.9492 7.76571C67.8764 7.76571 66.9583 8.11116 66.1946 8.8021C65.4309 9.47483 64.9762 10.393 64.8309 11.5567H73.1493ZM82.0181 7.5748C82.4726 6.81115 83.0726 6.22023 83.8181 5.80203C84.5818 5.36566 85.4818 5.14747 86.5182 5.14747V8.36572H85.7273C84.5091 8.36572 83.5819 8.67483 82.9454 9.29302C82.3273 9.9112 82.0181 10.984 82.0181 12.5113V20.4205H78.9089V5.39293H82.0181V7.5748ZM87.7943 12.8385C87.7943 11.3294 88.1035 9.99302 88.7216 8.82937C89.358 7.66572 90.2127 6.7657 91.2853 6.12931C92.3762 5.47476 93.5762 5.14747 94.8853 5.14747C96.0673 5.14747 97.0945 5.38383 97.9672 5.85658C98.8583 6.31113 99.5674 6.88387 100.095 7.5748V5.39293H103.231V20.4205H100.095V18.1841C99.5674 18.8932 98.8491 19.4841 97.9399 19.9569C97.031 20.4297 95.9946 20.666 94.8308 20.666C93.54 20.666 92.3581 20.3387 91.2853 19.6841C90.2127 19.0115 89.358 18.0842 88.7216 16.9023C88.1035 15.7022 87.7943 14.3477 87.7943 12.8385ZM100.095 12.8931C100.095 11.8567 99.8764 10.9567 99.44 10.193C99.022 9.42938 98.4673 8.84754 97.7763 8.44755C97.0856 8.04754 96.34 7.84753 95.5399 7.84753C94.7401 7.84753 93.9945 8.04754 93.3035 8.44755C92.6127 8.82937 92.0489 9.40211 91.6125 10.1658C91.1945 10.9112 90.9852 11.8022 90.9852 12.8385C90.9852 13.8749 91.1945 14.784 91.6125 15.5659C92.0489 16.3476 92.6127 16.9476 93.3035 17.3659C94.0126 17.7658 94.7581 17.9659 95.5399 17.9659C96.34 17.9659 97.0856 17.7658 97.7763 17.3659C98.4673 16.966 99.022 16.3841 99.44 15.6204C99.8764 14.8386 100.095 13.9295 100.095 12.8931ZM109.879 0.238281V20.4205H106.769V0.238281H109.879Z" fill="white"/>
</svg>
